<svg width="25" height="39" viewBox="0 0 25 39" fill="none" xmlns="http://www.w3.org/2000/svg">
<path d="M6.94013 24.9995C6.94992 23.8276 7.26248 22.6781 7.84749 21.6626C8.4325 20.6471 9.27008 19.8001 10.2789 19.2038L0.499371 2.25434C0.223513 1.77624 0.387203 1.16504 0.865088 0.888808L1.53645 0.500738C2.0148 0.224236 2.62674 0.38806 2.90296 0.866571L12.9261 18.2302C14.2176 17.9417 15.5608 17.9816 16.8329 18.3462C18.105 18.7109 19.2654 19.3887 20.2079 20.3176C25.4078 25.3328 25.005 37.0575 24.9856 37.5548C24.9712 37.9134 24.8186 38.2525 24.5597 38.5011C24.3007 38.7497 23.9556 38.8883 23.5967 38.8881H2.77633C2.48483 38.8881 2.20073 38.7963 1.96425 38.6259C1.72778 38.4555 1.55092 38.2149 1.45874 37.9384C1.36656 37.6619 1.36373 37.3633 1.45065 37.0851C1.53756 36.8069 1.70982 36.563 1.94301 36.3881C6.85958 32.6993 6.94013 25.0745 6.94013 24.9995ZM13.9858 20.8287C12.8742 20.8409 11.8101 21.2813 11.0149 22.0581C10.2197 22.8349 9.75464 23.8885 9.71646 24.9995C9.71646 25.0522 9.71368 25.2884 9.69285 25.6508L17.8871 22.0065C17.3474 21.5614 16.7245 21.2281 16.0547 21.0259C15.385 20.8237 14.6817 20.7567 13.9858 20.8287ZM9.09703 36.1103C9.99999 35.1909 10.6367 34.0507 10.9484 32.8112C11.0714 32.322 11.4895 31.9438 11.9939 31.9438H12.819C13.3977 31.9438 13.8606 32.4354 13.7538 33.0042C13.5475 34.1026 13.1383 35.1564 12.5442 36.1103H15.6316C16.108 34.6069 16.4288 33.0594 16.5895 31.4921C16.6434 30.9664 17.0783 30.5549 17.6067 30.5549H18.3953C18.9662 30.5549 19.4233 31.0325 19.3714 31.601C19.232 33.127 18.9472 34.637 18.5204 36.1103H22.2217C22.1787 33.5604 21.819 27.9272 19.7176 24.2314L9.25536 28.8841C8.75269 31.4942 7.681 33.9615 6.11654 36.1103H9.09703Z" fill="#F7F7F1"/>
</svg>
