<svg width="31" height="24" viewBox="0 0 31 24" fill="none" xmlns="http://www.w3.org/2000/svg">
<path d="M6.93123 4.72725C6.77023 4.64042 6.58945 4.59686 6.40657 4.60084C6.22369 4.60481 6.04497 4.65617 5.88789 4.74991C5.73081 4.84365 5.60075 4.97654 5.51042 5.13561C5.42009 5.29467 5.37259 5.47445 5.37256 5.65738V19.0456C5.37256 19.3259 5.48392 19.5948 5.68214 19.793C5.88036 19.9912 6.1492 20.1026 6.42952 20.1026C6.70985 20.1026 6.97869 19.9912 7.17691 19.793C7.37513 19.5948 7.48649 19.3259 7.48649 19.0456V7.42744L15.0882 11.52C15.401 11.6891 15.7787 11.6891 16.0916 11.52L23.6933 7.42744V19.0456C23.6933 19.3259 23.8046 19.5948 24.0029 19.793C24.2011 19.9912 24.4699 20.1026 24.7503 20.1026C25.0306 20.1026 25.2994 19.9912 25.4976 19.793C25.6959 19.5948 25.8072 19.3259 25.8072 19.0456V5.65738C25.8072 5.47445 25.7597 5.29467 25.6694 5.13561C25.579 4.97654 25.449 4.84365 25.2919 4.74991C25.1348 4.65617 24.9561 4.60481 24.7732 4.60084C24.5903 4.59686 24.4095 4.64042 24.2485 4.72725L15.5899 9.38917L6.93123 4.72725Z" fill="#F7F7F1"/>
<path fill-rule="evenodd" clip-rule="evenodd" d="M23.0732 0.333843C18.0942 -0.111281 13.0855 -0.111281 8.10656 0.333843L5.96726 0.524097C4.85292 0.623602 3.80465 1.09582 2.99175 1.86448C2.17885 2.63315 1.64878 3.65338 1.48714 4.76041C0.785212 9.56123 0.785212 14.4386 1.48714 19.2394C1.64913 20.3464 2.17953 21.3665 2.99269 22.1349C3.80585 22.9033 4.85429 23.3752 5.96867 23.4743L8.10515 23.666C13.0856 24.1113 18.0942 24.1113 23.0746 23.666L25.2125 23.4743C26.3266 23.3749 27.3747 22.9029 28.1876 22.1345C29.0005 21.3661 29.5307 20.3462 29.6926 19.2394C30.3945 14.4386 30.3945 9.56123 29.6926 4.76041C29.5309 3.65316 29.0006 2.63276 28.1874 1.86407C27.3743 1.09538 26.3257 0.623301 25.2111 0.524097L23.0746 0.333843H23.0732ZM8.2954 2.43932C13.1496 2.0053 18.0329 2.0053 22.8872 2.43932L25.025 2.63098C25.6659 2.6879 26.269 2.95921 26.7367 3.40109C27.2043 3.84296 27.5094 4.42959 27.6026 5.06623C28.275 9.66424 28.275 14.3356 27.6026 18.9336C27.5094 19.5702 27.2043 20.1569 26.7367 20.5988C26.269 21.0406 25.6659 21.3119 25.025 21.3689L22.8872 21.5605C18.0336 21.9946 13.149 21.9946 8.2954 21.5605L6.15752 21.3689C5.51661 21.3119 4.91361 21.0406 4.44592 20.5988C3.97822 20.1569 3.67313 19.5702 3.57993 18.9336C2.90765 14.3356 2.90765 9.66425 3.57993 5.06623C3.67313 4.42959 3.97822 3.84296 4.44592 3.40109C4.91361 2.95921 5.51661 2.6879 6.15752 2.63098L8.2954 2.43932Z" fill="#F7F7F1"/>
</svg>
