<svg width="30" height="30" viewBox="0 0 30 30" fill="none" xmlns="http://www.w3.org/2000/svg">
<path d="M29.8112 0.705035C29.7748 0.341658 29.4133 0.103806 29.0652 0.21421L27.8345 0.604534C24.5678 1.68445 21.0794 2.01584 17.6528 1.57179C14.0521 1.04012 10.3666 1.51257 7.04222 2.93199C5.27984 3.64601 3.73317 4.76813 2.54301 6.19618C1.35285 7.62424 0.557006 9.31286 0.227941 11.1083C-0.106789 12.8349 -0.0725479 14.608 0.32862 16.3218C0.729787 18.0356 1.48966 19.6549 2.5629 21.0831C2.4676 21.4005 2.37229 21.7179 2.29287 22.0353C1.73959 24.2737 1.42553 26.5587 1.35487 28.8553C1.3354 29.4881 1.85158 30 2.4847 30H3.44222C4.04706 30 4.54689 29.5313 4.6026 28.929C4.77222 27.0956 5.05642 25.273 5.45381 23.471C7.65762 24.6033 10.1291 25.1808 12.6334 25.1486C14.9691 25.1471 17.2808 24.7 19.4318 23.8338C31.5196 18.9219 29.9312 2.58438 29.9312 1.90428L29.8112 0.705035ZM18.1929 21.0529C14.0471 22.7305 9.09127 22.4433 6.31155 20.3728C6.78135 18.8781 7.42605 17.4384 8.23353 16.0806C8.86126 15.1034 9.60182 14.196 10.4414 13.3753C11.2993 12.5459 12.2656 11.8246 13.3164 11.2292C15.344 10.0756 17.578 9.29148 19.9041 8.91524C20.1881 8.86931 20.4007 8.62685 20.4007 8.33924V7.88635C20.4007 7.57615 20.1547 7.32094 19.8445 7.31977C17.1513 7.30962 14.487 7.86975 12.0457 8.96222C9.37785 10.2008 7.11532 12.108 5.50146 14.4786C4.9029 15.384 4.37212 16.3284 3.91305 17.3048C3.17686 15.5129 2.96817 13.5639 3.30946 11.6675C3.53306 10.3398 4.10826 9.08822 4.98086 8.03058C5.85345 6.97293 6.9947 6.14409 8.29706 5.62217C10.1962 4.77757 12.2685 4.344 14.3648 4.35264C15.3496 4.35264 16.3185 4.44332 17.3351 4.51889C20.5188 4.90973 23.7512 4.73032 26.8656 3.98992C26.7544 8.16121 25.9602 17.9093 18.1929 21.0529Z" fill="#F7F7F1"/>
</svg>
