<svg width="1396" height="1425" viewBox="0 0 1396 1425" fill="none" xmlns="http://www.w3.org/2000/svg">
<path d="M305.463 313.171C306.823 312.311 308.693 309.881 309.883 308.701C338.603 280.094 370.089 254.934 404.343 233.221C450.363 204.051 501.373 179.951 553.773 164.851C615.239 147.137 677.383 139.944 740.203 143.271C862.943 149.771 972.249 190.957 1068.12 266.831C1147.02 329.261 1206.45 411.751 1243.63 505.301C1243.76 505.613 1243.97 505.881 1244.25 506.07C1244.53 506.259 1244.86 506.36 1245.19 506.361H1393.66C1393.72 506.36 1393.78 506.345 1393.84 506.318C1393.89 506.29 1393.94 506.25 1393.98 506.201C1394.01 506.153 1394.04 506.097 1394.05 506.037C1394.06 505.978 1394.05 505.918 1394.03 505.861C1358 389.011 1294.03 283.671 1205.8 199.071C1155.94 151.251 1101.15 111.747 1041.44 80.5607C880.673 -3.41928 696.383 -20.1493 521.013 26.7407C453.923 44.6907 387.593 75.7407 329.433 112.681C226.053 178.331 143.093 269.511 84.3127 377.631C26.3827 484.191 -1.24731 606.291 1.14269 727.301C3.12269 828.274 25.666 924.267 68.7727 1015.28C178.433 1246.81 403.823 1402.97 659.693 1421.71C759.893 1429.05 857.319 1416.04 951.973 1382.69C958.273 1380.47 964.519 1378.14 970.713 1375.71C1066.56 1338.04 1150.43 1282.2 1222.32 1208.19C1265.65 1163.58 1302.81 1114.31 1333.79 1060.38C1335.48 1057.45 1336.98 1054.51 1338.28 1051.57C1338.32 1051.48 1338.34 1051.37 1338.33 1051.27C1338.33 1051.17 1338.29 1051.07 1338.24 1050.99C1338.18 1050.9 1338.11 1050.83 1338.02 1050.78C1337.93 1050.73 1337.83 1050.7 1337.72 1050.7H1171.46C1171.05 1050.7 1170.72 1050.87 1170.46 1051.21C1120.19 1118.46 1058.36 1172.24 984.973 1212.56C979.146 1215.76 973.233 1218.84 967.233 1221.8C876.573 1266.54 780.463 1286.27 678.903 1280.98C672.236 1280.63 665.589 1280.13 658.963 1279.48C553.583 1269.07 458.549 1232.48 373.863 1169.71C305.463 1119 249.373 1052.79 209.073 977.771C179.313 922.377 159.656 863.557 150.103 801.311C133.673 694.301 146.683 581.911 190.843 483.091C218.976 420.137 256.846 363.774 304.453 314.001C304.753 313.681 305.089 313.404 305.463 313.171Z" fill="#3E3C44" stroke="#9C9B9D" stroke-width="2"/>
<path d="M390.413 284.741C389.986 284.901 389.696 285.041 389.543 285.161C271.233 375.141 194.183 508.461 180.003 656.881C179.376 663.414 178.833 670.057 178.373 676.811C172.326 765.877 187.379 850.634 223.533 931.081C238.426 964.207 257.169 996.607 279.763 1028.28C283.043 1032.88 286.743 1037.25 290.363 1041.6C290.577 1041.85 290.88 1042.01 291.21 1042.05C291.539 1042.09 291.87 1041.99 292.133 1041.79C329.413 1012.88 369.306 988.201 411.813 967.741C411.955 967.672 412.08 967.572 412.177 967.448C412.275 967.324 412.343 967.179 412.375 967.026C412.408 966.872 412.405 966.713 412.367 966.562C412.328 966.41 412.255 966.269 412.153 966.151C330.493 868.981 299.423 739.461 331.443 615.831C362.733 495.001 446.633 396.061 562.443 348.351C743.303 273.851 944.293 342.381 1047.81 505.301C1048.01 505.613 1048.29 505.87 1048.61 506.048C1048.93 506.227 1049.29 506.32 1049.66 506.321H1206.44C1206.59 506.322 1206.74 506.285 1206.87 506.214C1207 506.144 1207.12 506.041 1207.2 505.916C1207.28 505.791 1207.33 505.647 1207.34 505.498C1207.36 505.348 1207.33 505.198 1207.27 505.061C1162.96 402.441 1094.42 321.067 1001.64 260.941C996.029 257.307 990.353 253.817 984.613 250.471C897.683 199.861 798.833 173.751 697.693 176.541C586.183 179.611 479.853 216.901 390.723 284.351C390.643 284.411 390.593 284.481 390.573 284.561C390.553 284.647 390.499 284.707 390.413 284.741Z" fill="#3E3C44" stroke="#9C9B9D" stroke-width="2"/>
<path d="M649.583 537.411C651.633 573.861 673.903 605.531 704.723 624.011C705.096 624.236 705.523 624.355 705.957 624.353C706.391 624.352 706.816 624.229 707.183 624.001C729.729 610.074 745.836 590.611 755.503 565.611C763.703 544.411 765.493 524.661 759.793 503.041C751.066 469.907 733.086 442.474 705.853 420.741C705.559 420.507 705.273 420.514 704.993 420.761C671.443 449.261 647.063 492.691 649.583 537.411Z" fill="#6B7A2F"/>
<path d="M547.933 568.311C550.583 646.911 605.623 718.461 690.203 713.031C691.923 712.921 692.933 712.011 693.123 710.221C694.296 699.147 693.949 688.384 692.083 677.931C679.893 609.601 613.393 570.451 548.643 567.601C548.548 567.597 548.454 567.612 548.366 567.646C548.278 567.68 548.198 567.732 548.131 567.799C548.064 567.866 548.012 567.946 547.978 568.034C547.944 568.122 547.928 568.216 547.933 568.311Z" fill="#6B7A2F"/>
<path d="M731.073 712.931C815.963 719.061 869.683 645.791 872.853 568.411C872.857 568.306 872.84 568.202 872.802 568.105C872.764 568.007 872.706 567.919 872.633 567.846C872.56 567.772 872.472 567.715 872.375 567.678C872.279 567.641 872.176 567.625 872.073 567.631C795.253 570.891 720.093 625.221 727.633 709.951C727.853 712.401 728.843 712.771 731.073 712.931Z" fill="#6B7A2F"/>
<path d="M1011.47 982.111C1050.74 1003.31 1087.49 1028.15 1121.72 1056.62C1121.83 1056.71 1121.95 1056.78 1122.09 1056.82C1122.22 1056.86 1122.36 1056.87 1122.5 1056.86C1122.64 1056.85 1122.77 1056.81 1122.9 1056.74C1123.02 1056.68 1123.13 1056.59 1123.22 1056.48C1156.14 1017.3 1183.67 973.251 1204.05 926.171C1239.37 844.604 1253.66 758.814 1246.92 668.801C1246.79 667.021 1246.58 665.524 1246.28 664.311C1246.2 663.984 1245.99 663.821 1245.65 663.821L935.153 663.881C934.964 663.881 934.784 663.957 934.651 664.092C934.517 664.227 934.443 664.41 934.443 664.601V798.821C934.445 798.954 934.5 799.081 934.596 799.175C934.691 799.268 934.819 799.321 934.953 799.321H1094.7C1094.91 799.321 1095.12 799.362 1095.31 799.442C1095.5 799.522 1095.68 799.639 1095.83 799.786C1095.97 799.934 1096.09 800.109 1096.17 800.302C1096.25 800.495 1096.29 800.702 1096.29 800.911C1096.3 801.277 1096.23 801.741 1096.09 802.301C1080.23 868.327 1049.62 926.454 1004.27 976.681C1004.17 976.789 1004.1 976.917 1004.06 977.057C1004.02 977.197 1004.01 977.345 1004.03 977.489C1004.06 977.634 1004.11 977.772 1004.19 977.893C1004.28 978.015 1004.39 978.116 1004.51 978.191C1006.81 979.537 1009.13 980.844 1011.47 982.111Z" fill="#3E3C44" stroke="#9C9B9D" stroke-width="2"/>
<path d="M547.913 706.311C548.963 747.681 566.793 789.991 596.643 818.571C621.049 841.937 650.809 852.811 685.923 851.191C687.809 851.104 689.703 850.847 691.603 850.421C691.929 850.347 692.199 850.184 692.413 849.931C693.166 849.031 693.559 848.064 693.593 847.031C694.993 804.617 680.396 770.094 649.803 743.461C622.293 719.511 584.963 706.811 548.593 705.631C548.503 705.628 548.413 705.644 548.329 705.677C548.245 705.71 548.169 705.76 548.106 705.824C548.042 705.887 547.992 705.963 547.959 706.047C547.926 706.131 547.91 706.221 547.913 706.311Z" fill="#6B7A2F"/>
<path d="M868.773 705.851C792.443 709.691 721.133 764.641 727.533 847.661C727.663 849.391 728.763 850.801 730.453 850.921C769.439 853.547 802.303 841.041 829.043 813.401C856.643 784.881 871.223 745.941 872.963 706.601C872.983 706.227 872.829 705.957 872.503 705.791C871.483 705.261 869.543 705.811 868.773 705.851Z" fill="#6B7A2F"/>
<path d="M311.603 1067.39C427.673 1196.43 595.673 1263.87 769.203 1245.16C896.573 1231.43 1013.3 1173.37 1101.57 1080.94C1101.74 1080.77 1101.86 1080.56 1101.95 1080.34C1102.03 1080.12 1102.06 1079.88 1102.05 1079.64C1102.03 1079.41 1101.97 1079.17 1101.86 1078.96C1101.75 1078.75 1101.6 1078.57 1101.41 1078.42C990.559 988.287 863.266 940.177 719.533 934.091C719.274 934.08 719.03 933.97 718.851 933.784C718.672 933.598 718.572 933.349 718.573 933.091V861.371C718.573 861.121 718.474 860.882 718.297 860.706C718.121 860.53 717.882 860.431 717.633 860.431L694.243 860.441C693.689 860.441 693.413 860.714 693.413 861.261V932.571C693.413 932.88 693.291 933.177 693.074 933.398C692.857 933.619 692.562 933.745 692.253 933.751C550.846 935.964 424.116 979.357 312.063 1063.93C310.643 1065 310.489 1066.15 311.603 1067.39Z" fill="#6B7A2F"/>
</svg>
