<svg width="24" height="24" viewBox="0 0 24 24" fill="none" xmlns="http://www.w3.org/2000/svg">
<path d="M18.879 13.9444L15.1864 12.0981C15.041 12.0257 14.8791 11.9928 14.7171 12.003C14.555 12.0131 14.3984 12.0658 14.2632 12.1558L12.5681 13.2867C11.7899 12.8589 11.1495 12.2185 10.7217 11.4403L11.8526 9.74517C11.9426 9.60996 11.9953 9.45342 12.0054 9.29133C12.0155 9.12924 11.9827 8.96735 11.9103 8.822L10.064 5.12934C9.98744 4.97479 9.86915 4.84477 9.72251 4.75401C9.57587 4.66325 9.40673 4.61538 9.23427 4.61583C8.01008 4.61583 6.83603 5.10214 5.97039 5.96777C5.10476 6.83341 4.61845 8.00746 4.61845 9.23166C4.6215 11.9239 5.69236 14.5051 7.5961 16.4088C9.49983 18.3126 12.081 19.3834 14.7733 19.3865C15.3794 19.3865 15.9797 19.2671 16.5397 19.0351C17.0997 18.8032 17.6085 18.4632 18.0372 18.0345C18.4658 17.6059 18.8058 17.0971 19.0377 16.5371C19.2697 15.977 19.3891 15.3768 19.3891 14.7706C19.3892 14.5991 19.3416 14.431 19.2515 14.2851C19.1614 14.1391 19.0324 14.0212 18.879 13.9444ZM14.7733 17.5401C12.5705 17.5377 10.4586 16.6616 8.90098 15.1039C7.34336 13.5463 6.46722 11.4345 6.46478 9.23166C6.4646 8.59135 6.6863 7.97076 7.09214 7.4755C7.49799 6.98024 8.0629 6.6409 8.69076 6.51524L10.0155 9.16934L8.88809 10.8472C8.80384 10.9736 8.75207 11.1188 8.73738 11.2699C8.72268 11.4211 8.74552 11.5736 8.80385 11.7138C9.46436 13.2836 10.7132 14.5325 12.283 15.193C12.4237 15.2539 12.5773 15.2789 12.73 15.2656C12.8827 15.2523 13.0297 15.2012 13.1577 15.1168L14.8437 13.9929L17.4978 15.3176C17.3711 15.9462 17.0303 16.5114 16.5334 16.9167C16.0366 17.322 15.4145 17.5424 14.7733 17.5401ZM12.0038 2.85807e-07C9.9318 -0.000451845 7.89501 0.535538 6.09165 1.5558C4.28829 2.57606 2.77979 4.04583 1.71298 5.82206C0.646178 7.59829 0.0574112 9.62045 0.00399032 11.6917C-0.0494306 13.763 0.434314 15.8128 1.40814 17.6417L0.0983979 21.5709C-0.0100917 21.8962 -0.0258361 22.2453 0.0529295 22.5791C0.131695 22.9129 0.301858 23.2181 0.544346 23.4606C0.786834 23.7031 1.09206 23.8732 1.42583 23.952C1.75959 24.0308 2.10869 24.015 2.43401 23.9065L6.36323 22.5968C7.97273 23.4529 9.75611 23.931 11.578 23.9949C13.3999 24.0589 15.2124 23.7069 16.8779 22.9657C18.5435 22.2246 20.0183 21.1138 21.1904 19.7175C22.3626 18.3213 23.2012 16.6764 23.6427 14.9077C24.0842 13.1389 24.117 11.2929 23.7385 9.50957C23.36 7.72629 22.5803 6.05266 21.4584 4.61573C20.3365 3.1788 18.9021 2.01633 17.2639 1.21656C15.6257 0.416796 13.8268 0.00074803 12.0038 2.85807e-07ZM12.0038 22.156C10.2186 22.1572 8.4647 21.6871 6.91944 20.7931C6.8063 20.7275 6.68051 20.6867 6.5504 20.6734C6.4203 20.6601 6.28884 20.6745 6.16475 20.7158L1.84895 22.156L3.28794 17.8402C3.32941 17.7162 3.34408 17.5848 3.33095 17.4546C3.31782 17.3245 3.27719 17.1987 3.21177 17.0855C2.0924 15.1502 1.64298 12.8996 1.93322 10.6828C2.22347 8.46605 3.23715 6.40702 4.81703 4.82515C6.3969 3.24327 8.45465 2.22699 10.6711 1.93394C12.8875 1.6409 15.1386 2.08748 17.0753 3.20441C19.012 4.32133 20.526 6.04617 21.3824 8.11134C22.2388 10.1765 22.3897 12.4666 21.8118 14.6263C21.2338 16.786 19.9593 18.6946 18.1859 20.056C16.4125 21.4175 14.2395 22.1556 12.0038 22.156Z" fill="#F7F7F1"/>
</svg>
