<svg width="1396" height="1426" viewBox="0 0 1396 1426" fill="none" xmlns="http://www.w3.org/2000/svg">
<path d="M305.77 314.11C307.13 313.25 309 310.82 310.19 309.64C338.91 281.033 370.397 255.873 404.65 234.16C450.67 204.99 501.68 180.89 554.08 165.79C615.547 148.077 677.69 140.883 740.51 144.21C863.25 150.71 972.557 191.897 1068.43 267.77C1147.33 330.2 1206.76 412.69 1243.94 506.24C1244.06 506.552 1244.28 506.821 1244.56 507.01C1244.84 507.199 1245.16 507.3 1245.5 507.3H1393.97C1394.03 507.299 1394.09 507.285 1394.15 507.257C1394.2 507.229 1394.25 507.189 1394.28 507.141C1394.32 507.092 1394.34 507.036 1394.35 506.977C1394.36 506.917 1394.36 506.857 1394.34 506.8C1358.31 389.95 1294.34 284.61 1206.11 200.01C1156.24 152.19 1101.46 112.687 1041.75 81.5C880.98 -2.48001 696.69 -19.21 521.32 27.68C454.23 45.63 387.9 76.68 329.74 113.62C226.36 179.27 143.4 270.45 84.6201 378.57C26.6901 485.13 -0.939937 607.23 1.45006 728.24C3.43006 829.213 25.9734 925.207 69.0801 1016.22C178.74 1247.75 404.13 1403.91 660 1422.65C760.2 1429.99 857.627 1416.98 952.28 1383.63C958.58 1381.41 964.827 1379.08 971.02 1376.65C1066.87 1338.98 1150.74 1283.14 1222.63 1209.13C1265.96 1164.52 1303.11 1115.25 1334.1 1061.32C1335.79 1058.39 1337.28 1055.45 1338.59 1052.51C1338.63 1052.42 1338.65 1052.31 1338.64 1052.21C1338.63 1052.11 1338.6 1052.01 1338.54 1051.92C1338.49 1051.84 1338.41 1051.77 1338.32 1051.72C1338.23 1051.67 1338.13 1051.64 1338.03 1051.64H1171.77C1171.36 1051.64 1171.02 1051.81 1170.77 1052.15C1120.5 1119.4 1058.67 1173.18 985.28 1213.5C979.453 1216.7 973.54 1219.78 967.54 1222.74C876.88 1267.48 780.77 1287.21 679.21 1281.92C672.543 1281.57 665.897 1281.07 659.27 1280.42C553.89 1270.01 458.857 1233.42 374.17 1170.65C305.77 1119.94 249.68 1053.73 209.38 978.71C179.62 923.317 159.963 864.497 150.41 802.25C133.98 695.24 146.99 582.85 191.15 484.03C219.283 421.077 257.153 364.713 304.76 314.94C305.06 314.62 305.397 314.343 305.77 314.11Z" fill="#F7F7F1" stroke="#9C9B9D" stroke-width="2"/>
<path d="M390.72 285.68C390.293 285.84 390.003 285.98 389.85 286.1C271.54 376.08 194.49 509.4 180.31 657.82C179.683 664.353 179.14 670.997 178.68 677.75C172.633 766.817 187.687 851.573 223.84 932.02C238.733 965.147 257.477 997.547 280.07 1029.22C283.35 1033.82 287.05 1038.19 290.67 1042.54C290.884 1042.79 291.187 1042.95 291.517 1042.99C291.847 1043.02 292.177 1042.93 292.44 1042.73C329.72 1013.82 369.613 989.14 412.12 968.68C412.262 968.611 412.387 968.511 412.484 968.387C412.582 968.263 412.65 968.119 412.683 967.965C412.716 967.811 412.713 967.652 412.674 967.501C412.635 967.349 412.562 967.209 412.46 967.09C330.8 869.92 299.73 740.4 331.75 616.77C363.04 495.94 446.94 397 562.75 349.29C743.61 274.79 944.6 343.32 1048.12 506.24C1048.32 506.552 1048.59 506.809 1048.92 506.988C1049.24 507.166 1049.6 507.26 1049.97 507.26H1206.75C1206.9 507.261 1207.05 507.224 1207.18 507.154C1207.31 507.083 1207.42 506.98 1207.51 506.855C1207.59 506.73 1207.64 506.586 1207.65 506.437C1207.66 506.287 1207.64 506.137 1207.58 506C1163.27 403.38 1094.72 322.007 1001.95 261.88C996.337 258.247 990.66 254.757 984.92 251.41C897.99 200.8 799.14 174.69 698 177.48C586.49 180.55 480.16 217.84 391.03 285.29C390.95 285.35 390.9 285.42 390.88 285.5C390.86 285.587 390.807 285.647 390.72 285.68Z" fill="#F7F7F1" stroke="#9C9B9D" stroke-width="2"/>
<path d="M649.89 538.35C651.94 574.8 674.21 606.47 705.03 624.95C705.403 625.176 705.83 625.294 706.264 625.293C706.699 625.291 707.123 625.169 707.49 624.94C730.037 611.013 746.143 591.55 755.81 566.55C764.01 545.35 765.8 525.6 760.1 503.98C751.373 470.847 733.393 443.413 706.16 421.68C705.867 421.447 705.58 421.453 705.3 421.7C671.75 450.2 647.37 493.63 649.89 538.35Z" fill="#F7F7F1"/>
<path d="M548.24 569.25C550.89 647.85 605.93 719.4 690.51 713.97C692.23 713.86 693.24 712.95 693.43 711.16C694.603 700.087 694.257 689.323 692.39 678.87C680.2 610.54 613.7 571.39 548.95 568.54C548.856 568.536 548.761 568.551 548.673 568.585C548.585 568.62 548.505 568.672 548.438 568.738C548.372 568.805 548.319 568.885 548.285 568.973C548.251 569.061 548.236 569.156 548.24 569.25Z" fill="#F7F7F1"/>
<path d="M731.38 713.87C816.27 720 869.99 646.73 873.16 569.35C873.164 569.245 873.147 569.141 873.109 569.044C873.071 568.947 873.014 568.858 872.94 568.785C872.867 568.712 872.779 568.654 872.683 568.617C872.586 568.58 872.483 568.564 872.38 568.57C795.56 571.83 720.4 626.16 727.94 710.89C728.16 713.34 729.15 713.71 731.38 713.87Z" fill="#F7F7F1"/>
<path d="M1011.78 983.05C1051.05 1004.25 1087.8 1029.09 1122.03 1057.56C1122.14 1057.65 1122.26 1057.72 1122.39 1057.76C1122.53 1057.8 1122.67 1057.81 1122.81 1057.8C1122.95 1057.79 1123.08 1057.75 1123.21 1057.68C1123.33 1057.62 1123.44 1057.53 1123.53 1057.42C1156.45 1018.24 1183.98 974.19 1204.36 927.11C1239.67 845.543 1253.96 759.753 1247.23 669.74C1247.1 667.96 1246.88 666.463 1246.59 665.25C1246.5 664.923 1246.29 664.76 1245.96 664.76L935.46 664.82C935.272 664.82 935.091 664.896 934.958 665.031C934.825 665.166 934.75 665.349 934.75 665.54V799.76C934.753 799.894 934.808 800.021 934.903 800.114C934.998 800.208 935.126 800.26 935.26 800.26H1095.01C1095.22 800.26 1095.43 800.301 1095.62 800.381C1095.81 800.461 1095.99 800.578 1096.13 800.726C1096.28 800.873 1096.4 801.049 1096.48 801.242C1096.56 801.434 1096.6 801.641 1096.6 801.85C1096.61 802.217 1096.54 802.68 1096.4 803.24C1080.53 869.267 1049.93 927.393 1004.58 977.62C1004.48 977.728 1004.41 977.856 1004.37 977.996C1004.33 978.136 1004.32 978.284 1004.34 978.428C1004.36 978.573 1004.42 978.711 1004.5 978.833C1004.58 978.954 1004.69 979.055 1004.82 979.13C1007.12 980.477 1009.44 981.783 1011.78 983.05Z" fill="#F7F7F1" stroke="#9C9B9D" stroke-width="2"/>
<path d="M548.22 707.25C549.27 748.62 567.1 790.93 596.95 819.51C621.357 842.877 651.117 853.75 686.23 852.13C688.117 852.043 690.01 851.787 691.91 851.36C692.237 851.287 692.507 851.123 692.72 850.87C693.473 849.97 693.867 849.003 693.9 847.97C695.3 805.557 680.703 771.033 650.11 744.4C622.6 720.45 585.27 707.75 548.9 706.57C548.81 706.567 548.72 706.583 548.637 706.616C548.553 706.649 548.477 706.699 548.413 706.763C548.349 706.827 548.299 706.903 548.266 706.987C548.233 707.07 548.217 707.16 548.22 707.25Z" fill="#F7F7F1"/>
<path d="M869.08 706.79C792.75 710.63 721.44 765.58 727.84 848.6C727.97 850.33 729.07 851.74 730.76 851.86C769.747 854.487 802.61 841.98 829.35 814.34C856.95 785.82 871.53 746.88 873.27 707.54C873.29 707.167 873.137 706.897 872.81 706.73C871.79 706.2 869.85 706.75 869.08 706.79Z" fill="#F7F7F1"/>
<path d="M311.91 1068.33C427.98 1197.37 595.98 1264.81 769.51 1246.1C896.88 1232.37 1013.61 1174.31 1101.88 1081.88C1102.04 1081.71 1102.17 1081.5 1102.25 1081.28C1102.33 1081.06 1102.37 1080.82 1102.35 1080.58C1102.34 1080.34 1102.27 1080.11 1102.17 1079.9C1102.06 1079.69 1101.9 1079.51 1101.72 1079.36C990.867 989.227 863.574 941.117 719.84 935.03C719.582 935.02 719.338 934.91 719.159 934.723C718.98 934.537 718.88 934.288 718.88 934.03V862.31C718.88 862.061 718.781 861.822 718.605 861.645C718.429 861.469 718.189 861.37 717.94 861.37L694.55 861.38C693.997 861.38 693.72 861.653 693.72 862.2V933.51C693.72 933.82 693.599 934.117 693.382 934.337C693.165 934.558 692.87 934.685 692.56 934.69C551.154 936.903 424.424 980.297 312.37 1064.87C310.95 1065.94 310.797 1067.09 311.91 1068.33Z" fill="#F7F7F1"/>
</svg>
